# xmcd
#
# Track frame offsets: 
#        150
#        13026
#        25459
#        37351
#        50458
#        61687
#        71560
#        85463
#        98226
#        110148
#        122506
#        135227
#        149490
#        163081
#        173500
#        185293
#        196159
#        205399
#        219314
#        232334
#        244862
#        258014
#        269357
#        285398
#        296699
#        307424
#        319016
#        333137
#
# Disc length: 4603 seconds
#
# Revision: 0
# Processed by: cddbd v1.5.2PL0 Copyright (c) Steve Scherf et al.
# Submitted via: ExactAudioCopy v0.99pb3
#
DISCID=a811f91c
DTITLE=Various Artist - Memphis Blues (Important Postwar Blues) [CDD)
DYEAR=2006
DGENRE=Blues
TTITLE0=Rufus Thomas - Tiger Man
TTITLE1=Rufus Thomas - Save That Money
TTITLE2=Little Milton - Lookin' For My Baby
TTITLE3=Little Milton - Homesick for My Baby
TTITLE4=Sammy Lewis-Willie Johnson - Feel So Worried
TTITLE5=Sammy Lewis-Willie Johnson - So Long Baby, Goodbye
TTITLE6=James Cotton - Cotton Crop Blues (Take 1)
TTITLE7=James Cotton - Hold Me In Your Arms
TTITLE8=Howling Wolf - Come Back Home (Take 1)
TTITLE9=Howling Wolf - Chocolate Drop
TTITLE10=Earl Hooker - Blue Guitar
TTITLE11=Boyd Gilmore - Believe I'll Settle Down
TTITLE12=Walter Horton - We All Gotta Go Sometime
TTITLE13=Walter Horton - Off The Wall
TTITLE14=Little Junior - Love My Baby
TTITLE15=Little Junior - Mystery Train
TTITLE16=Bobby Bland - Dry Up Baby
TTITLE17=Bobby Bland - Crying All Night Long
TTITLE18=Billy 'Red' Love - Way After Midnight (Take 1)
TTITLE19=Billy 'Red' Love - Hey Now (Take 1)
TTITLE20=Earl Forest - I Wronged A Woman
TTITLE21=Earl Forest - I Can't Forgive You
TTITLE22=Johnny Ace - Midnight Hours Journey
TTITLE23=Raymond Hill - My Baby Left Me
TTITLE24=Ike Turner - You're Driving Me Insane
TTITLE25=Ike Turner - Trouble And Heartache
TTITLE26=Billy 'The Kid' Emerson - When It Rains It Pours
TTITLE27=Billy 'The Kid' Emerson - Move Baby Move
EXTD=
EXTT0=
EXTT1=
EXTT2=
EXTT3=
EXTT4=
EXTT5=
EXTT6=
EXTT7=
EXTT8=
EXTT9=
EXTT10=
EXTT11=
EXTT12=
EXTT13=
EXTT14=
EXTT15=
EXTT16=
EXTT17=
EXTT18=
EXTT19=
EXTT20=
EXTT21=
EXTT22=
EXTT23=
EXTT24=
EXTT25=
EXTT26=
EXTT27=
PLAYORDER=
